<svg width="36" height="17" viewBox="0 0 36 17" fill="none" xmlns="http://www.w3.org/2000/svg">
<path d="M29.9133 6.27586C28.8139 5.19428 27.6821 4.14501 26.6341 3.0159C26.2987 2.65664 25.9767 2.06547 26.0244 1.62637C26.072 1.18728 26.5217 0.596108 26.9237 0.463048C27.1865 0.40112 27.4595 0.395184 27.7248 0.445625C27.9901 0.496066 28.2417 0.601751 28.4633 0.755782C29.2864 1.38877 29.9724 2.20043 30.7174 2.93606C32.0271 4.22864 33.3367 5.51996 34.6464 6.81C35.3952 7.55134 35.42 8.41813 34.6902 9.14616C32.5536 11.2713 30.4119 13.3901 28.2651 15.5026C27.4534 16.301 26.5655 16.3694 25.9272 15.7174C25.2889 15.0654 25.3822 14.1967 26.1978 13.387C27.4248 12.1571 28.6748 10.9444 29.818 9.49021H2.46196C2.17611 9.50101 1.88989 9.49657 1.60452 9.4769C0.769947 9.38376 0.137344 8.71656 0.194506 7.95622C0.257385 7.11794 0.754707 6.63513 1.58356 6.51917C1.86803 6.49412 2.15391 6.48904 2.43909 6.50397H29.7704L29.9133 6.27586Z" fill="#DE322D"/>
</svg>