<svg width="36" height="17" viewBox="0 0 36 17" fill="none" xmlns="http://www.w3.org/2000/svg">
<path d="M6.08689 6.27586C7.18632 5.19428 8.31814 4.14501 9.36611 3.0159C9.70147 2.65664 10.0235 2.06547 9.97776 1.62637C9.93202 1.18728 9.48044 0.596108 9.07649 0.463048C8.81366 0.40112 8.5407 0.395184 8.27541 0.445625C8.01012 0.496066 7.75849 0.601751 7.53692 0.755782C6.71377 1.38877 6.02782 2.20043 5.28471 2.93606C3.97505 4.22864 2.6654 5.51996 1.35574 6.81C0.606909 7.55134 0.580233 8.41813 1.31191 9.14616C3.44598 11.2713 5.58704 13.3901 7.73508 15.5026C8.54679 16.301 9.43471 16.3694 10.073 15.7174C10.7113 15.0654 10.618 14.1967 9.80246 13.387C8.57727 12.1571 7.33494 10.9444 6.18216 9.49021H33.5402C33.8254 9.501 34.111 9.49656 34.3957 9.4769C35.2303 9.38376 35.8629 8.71656 35.8057 7.95622C35.7428 7.11794 35.2455 6.63513 34.4166 6.51917C34.1322 6.49412 33.8463 6.48904 33.5611 6.50397H6.2298L6.08689 6.27586Z" fill="#DE322D"/>
</svg>